<?xml version="1.0" standalone="no"?>
<!DOCTYPE svg PUBLIC "-//W3C//DTD SVG 20010904//EN"
 "http://www.w3.org/TR/2001/REC-SVG-20010904/DTD/svg10.dtd">
<svg version="1.0" xmlns="http://www.w3.org/2000/svg"
 width="368.000000pt" height="579.000000pt" viewBox="0 0 368.000000 579.000000"
 preserveAspectRatio="xMidYMid meet">

<g transform="translate(0.000000,579.000000) scale(0.100000,-0.100000)"
fill="#F13223" stroke="none">
<path d="M2030 5481 c-156 -48 -255 -172 -517 -651 -127 -231 -154 -283 -269
-509 l-109 -214 -3 105 c-2 75 -7 109 -16 117 -20 16 -463 19 -492 3 -37 -20
-46 -60 -42 -200 4 -179 -3 -172 189 -172 88 0 150 -4 154 -10 3 -5 31 -10 61
-10 32 0 54 -4 54 -11 0 -14 -88 -178 -172 -321 -97 -165 -143 -267 -207 -464
l-57 -173 -51 -40 c-53 -43 -90 -86 -117 -138 -14 -28 -16 -73 -16 -335 0
-289 1 -302 18 -282 21 27 108 86 151 104 28 11 32 17 26 39 -18 70 -25 149
-25 281 0 166 21 310 51 348 10 14 19 33 19 44 0 44 147 448 163 448 2 0 2
-60 -1 -132 -5 -132 -5 -133 -38 -177 -60 -78 -64 -107 -64 -480 0 -189 4
-342 10 -351 5 -9 10 120 12 345 3 351 4 361 26 410 35 77 90 125 142 125 17
0 21 -5 18 -27 -3 -24 -9 -29 -43 -34 -25 -4 -43 -3 -48 5 -6 7 -7 5 -4 -6 3
-9 -1 -22 -9 -29 -9 -7 -25 -31 -37 -53 -21 -40 -22 -51 -22 -371 0 -181 2
-365 5 -408 l5 -77 -30 0 c-38 0 -92 33 -107 65 -6 14 -16 25 -22 25 -6 0 -39
-18 -72 -40 -121 -79 -142 -121 -79 -160 l35 -22 1590 8 1590 7 0 58 0 59
-1435 0 -1435 0 0 55 0 55 87 0 c60 0 91 -4 102 -14 9 -8 44 -28 77 -45 59
-30 67 -31 186 -31 l124 0 78 40 78 40 1069 0 c1062 0 1069 0 1069 20 0 20 -7
20 -1055 20 -612 0 -1055 4 -1055 9 0 5 7 12 16 15 9 3 483 6 1055 6 l1039 0
0 54 0 53 -46 7 c-26 3 -308 6 -626 6 l-580 0 -41 -35 c-64 -55 -136 -78 -232
-73 -89 5 -141 26 -189 77 -29 30 -32 31 -118 31 -52 0 -88 4 -88 10 0 6 32
10 76 10 42 0 74 4 72 8 -1 4 -12 31 -22 59 l-20 52 -50 3 c-69 4 -75 28 -6
28 l51 0 -3 58 -3 57 -44 0 c-26 0 -46 5 -49 13 -2 8 13 12 55 12 l58 1 37 59
37 60 -94 0 c-57 0 -95 4 -95 10 0 6 42 10 106 10 87 0 113 4 138 19 101 60
213 65 321 12 l62 -31 330 0 c181 0 472 3 646 7 l317 6 0 44 0 43 -1132 0
c-939 1 -1138 3 -1163 15 -26 11 138 13 1133 14 l1162 1 0 40 0 40 -1360 0
-1360 0 0 25 0 25 1360 0 c1353 0 1360 0 1360 20 0 20 -7 20 -1360 20 l-1360
0 0 106 c0 91 4 119 30 196 33 97 81 186 155 287 26 35 42 62 37 60 -25 -10
-125 -141 -165 -217 -67 -129 -87 -204 -87 -328 0 -91 -2 -105 -17 -110 -10
-3 -31 -12 -47 -20 -16 -8 -30 -13 -32 -11 -7 7 17 233 32 297 8 36 32 94 53
130 82 139 152 271 371 700 202 397 332 634 486 885 58 96 146 184 216 219
l52 26 818 0 818 0 0 25 0 25 -812 -1 c-447 0 -824 -4 -838 -8z m-885 -2446
c-19 -9 -68 -14 -137 -15 -99 0 -109 -2 -137 -25 -16 -14 -35 -41 -41 -60 -13
-41 -20 -537 -8 -572 7 -21 14 -23 82 -23 41 0 78 -4 81 -10 9 -15 -168 -13
-183 2 -9 9 -12 90 -12 302 0 272 1 292 21 332 35 74 62 84 224 83 127 -1 137
-2 110 -14z m297 -43 c204 -100 277 -350 164 -553 -38 -68 -99 -124 -173 -161
-64 -31 -74 -33 -173 -33 -99 0 -109 2 -172 33 -78 38 -125 88 -171 182 -30
61 -32 71 -32 175 0 99 3 116 27 168 35 74 116 155 198 196 62 31 69 32 165
29 90 -3 108 -6 167 -36z m288 -317 c0 -190 -4 -295 -10 -295 -6 0 -10 105
-10 295 0 190 4 295 10 295 6 0 10 -105 10 -295z"/>
<path d="M1119 2971 c-47 -25 -54 -33 -55 -60 0 -31 -14 -58 -14 -28 0 10 -4
17 -9 17 -17 0 -60 -60 -71 -98 -15 -57 -12 -65 14 -38 30 33 36 33 36 -4 0
-16 5 -30 10 -30 6 0 10 15 10 33 0 24 8 41 30 62 17 16 30 39 30 52 0 13 5
23 10 23 6 0 10 10 10 22 0 12 3 18 7 14 4 -4 8 -17 8 -28 0 -12 6 -23 13 -25
8 -3 12 7 12 31 0 38 15 52 60 56 42 4 50 1 50 -20 0 -27 18 -25 23 3 3 20 5
19 20 -13 14 -30 16 -32 17 -12 0 35 34 24 40 -13 3 -16 9 -29 15 -29 10 -1
26 74 19 86 -9 15 -82 28 -155 28 -65 0 -84 -4 -130 -29z"/>
<path d="M1524 2859 c36 -39 66 -75 66 -80 0 -5 5 -9 10 -9 25 0 -50 108 -100
143 -49 34 -41 16 24 -54z"/>
<path d="M1200 2890 c-8 -5 -11 -12 -8 -16 10 -9 78 5 78 16 0 13 -50 13 -70
0z"/>
<path d="M1195 2794 c-45 -23 -66 -45 -86 -89 -34 -73 -20 -154 35 -204 l26
-24 0 22 c0 28 15 19 41 -23 l19 -31 0 48 0 47 60 0 c55 0 75 -10 50 -25 -12
-8 -13 -65 -2 -65 5 0 27 13 49 29 84 61 96 195 25 274 -48 53 -155 73 -217
41z m160 -70 c22 -23 15 -57 -13 -64 -42 -9 -121 1 -116 15 3 7 1 16 -5 20 -8
4 -8 12 -1 26 14 25 110 28 135 3z"/>
<path d="M1260 2690 c0 -12 45 -24 59 -15 22 13 10 25 -24 25 -19 0 -35 -4
-35 -10z"/>
<path d="M920 2744 c-19 -57 -9 -210 18 -259 26 -48 27 -44 6 18 -12 35 -15
76 -12 162 1 63 2 115 1 115 -1 0 -7 -16 -13 -36z"/>
<path d="M971 2584 c-1 -16 6 -39 14 -50 18 -24 18 -20 1 36 -13 41 -15 42
-15 14z"/>
<path d="M1576 2466 c-36 -61 -107 -121 -175 -147 -47 -18 -71 -20 -155 -16
-117 5 -106 -12 13 -20 143 -10 259 49 324 165 36 64 30 81 -7 18z"/>
<path d="M1248 2451 c12 -7 62 -4 62 5 0 2 -17 4 -37 4 -24 0 -33 -3 -25 -9z"/>
<path d="M2051 5369 c-86 -34 -178 -157 -373 -499 -85 -149 -362 -703 -394
-786 -29 -78 -30 -88 -4 -114 19 -19 33 -20 370 -20 193 0 350 -3 350 -7 0 -4
-18 -34 -39 -67 -53 -81 -154 -292 -186 -388 -14 -42 -27 -105 -30 -140 l-5
-63 24 85 c52 179 149 380 251 519 l45 61 747 2 c412 2 776 2 811 1 l62 -1 0
141 0 142 -307 0 -308 0 -6 170 c-7 191 -16 233 -60 269 l-31 26 -308 0 c-172
0 -320 -4 -334 -10 -14 -5 -31 -22 -39 -37 -17 -32 -52 -183 -62 -263 -7 -56
-24 -103 -25 -69 0 40 44 268 61 316 17 43 26 54 53 63 30 10 36 19 72 116 25
68 47 113 63 125 22 18 47 19 452 19 l429 0 0 -33 c0 -54 8 -57 187 -57 l163
0 0 255 0 255 -802 -1 c-482 0 -812 -4 -827 -10z m1589 -229 l0 -49 -142 -3
-143 -3 -3 -47 c-4 -58 -22 -64 -22 -9 0 73 -3 71 151 71 l139 0 0 38 c0 34 6
52 17 52 2 0 3 -22 3 -50z"/>
<path d="M2077 2956 c-83 -30 -156 -111 -183 -205 -40 -135 32 -288 164 -347
76 -34 179 -34 249 2 144 71 208 246 144 392 -29 65 -100 131 -167 155 -58 20
-153 22 -207 3z m201 -29 c23 -8 38 -19 40 -32 4 -19 3 -19 -18 3 -11 12 -25
20 -31 17 -12 -8 -12 -82 1 -90 6 -3 10 -2 10 2 0 5 9 9 20 9 11 0 20 -7 20
-14 0 -12 3 -12 15 -2 12 10 15 10 15 -3 0 -10 8 -15 20 -14 11 1 20 7 20 15
0 30 26 3 42 -44 31 -90 18 -198 -32 -261 l-20 -26 0 27 c0 33 -41 54 -52 27
-5 -13 -7 -13 -8 4 -1 19 -1 19 -11 2 -6 -11 -8 -38 -4 -66 5 -40 4 -49 -11
-55 -13 -5 -14 -3 -6 7 12 14 4 97 -9 97 -5 0 -9 15 -9 34 0 40 -14 54 -29 29
-8 -14 -10 -15 -10 -3 0 8 6 24 14 34 33 44 7 120 -45 131 -61 13 -122 -52
-100 -109 12 -31 48 -56 82 -56 25 0 27 -4 33 -47 3 -27 8 -64 10 -83 4 -33 2
-36 -34 -47 -86 -27 -207 40 -255 141 -24 52 -31 140 -15 196 10 35 14 40 17
23 2 -13 10 -23 18 -23 11 0 13 6 8 23 -4 12 -12 25 -18 29 -8 5 -8 10 1 19 9
9 13 5 19 -17 10 -42 14 -46 30 -29 9 8 22 15 30 15 8 0 14 8 14 18 0 13 2 14
9 3 6 -9 11 -10 15 -2 4 6 12 9 17 6 5 -4 9 4 9 16 0 18 2 19 15 9 13 -11 15
-5 15 43 0 35 5 57 13 61 17 7 100 -2 145 -17z m-188 -7 c0 -5 -2 -10 -4 -10
-3 0 -8 5 -11 10 -3 6 -1 10 4 10 6 0 11 -4 11 -10z m-50 -32 c0 -18 -2 -20
-9 -8 -6 8 -7 18 -5 22 9 14 14 9 14 -14z m340 -29 c0 -6 -4 -7 -10 -4 -5 3
-10 11 -10 16 0 6 5 7 10 4 6 -3 10 -11 10 -16z m-133 -361 c-3 -7 -5 -2 -5
12 0 14 2 19 5 13 2 -7 2 -19 0 -25z m118 -18 c3 -5 1 -10 -4 -10 -6 0 -11 5
-11 10 0 6 2 10 4 10 3 0 8 -4 11 -10z"/>
<path d="M2207 2874 c-8 -8 3 -34 14 -34 5 0 9 9 9 20 0 19 -11 26 -23 14z"/>
<path d="M2057 2704 c-10 -11 -8 -54 2 -54 14 0 25 40 14 51 -5 5 -12 6 -16 3z"/>
<path d="M2067 2643 c-13 -13 -7 -53 8 -53 10 0 15 10 15 30 0 29 -9 38 -23
23z"/>
<path d="M2170 2567 c0 -23 11 -47 22 -47 14 0 5 53 -9 58 -7 2 -13 -3 -13
-11z"/>
<path d="M2046 2553 c-8 -8 -8 -46 0 -67 11 -29 24 -17 24 23 0 38 -10 57 -24
44z"/>
<path d="M2120 2501 c0 -20 17 -37 27 -28 7 8 -7 47 -18 47 -5 0 -9 -9 -9 -19z"/>
<path d="M2087 2467 c-3 -8 -1 -20 4 -28 11 -19 34 3 26 25 -8 20 -23 21 -30
3z"/>
<path d="M2807 2900 l-399 -5 20 -25 c10 -14 27 -40 36 -57 l17 -33 479 0 479
0 15 29 c8 15 31 42 50 59 20 17 36 34 36 37 0 3 -75 4 -167 3 -93 -2 -347 -5
-566 -8z"/>
<path d="M3608 2893 c-16 -4 -14 -11 13 -66 17 -34 33 -64 36 -67 11 -12 23
30 23 83 0 56 -1 57 -27 56 -16 -1 -36 -3 -45 -6z"/>
<path d="M3511 2836 l-22 -24 52 -103 52 -104 18 40 c10 22 18 47 18 55 1 19
-77 160 -88 160 -4 0 -18 -11 -30 -24z"/>
<path d="M2494 2746 c-3 -7 -4 -33 -2 -57 l3 -44 465 -3 465 -2 1 60 1 60
-464 0 c-386 0 -465 -2 -469 -14z"/>
<path d="M3463 2683 c2 -54 8 -79 23 -100 23 -31 92 -89 98 -82 2 2 -25 60
-60 129 l-64 125 3 -72z"/>
<path d="M3631 2565 c-17 -37 -31 -69 -31 -71 0 -2 18 -4 40 -4 l40 0 0 58 c0
91 -13 96 -49 17z"/>
<path d="M2473 2561 c-13 -32 -23 -61 -23 -65 0 -3 244 -6 541 -6 l542 0 -41
44 c-22 23 -43 53 -47 65 l-6 21 -472 0 -472 0 -22 -59z"/>
<path d="M420 2002 c0 -90 21 -151 80 -237 l31 -45 992 -2 c899 -2 943 -3 477
-9 -283 -3 -725 -7 -983 -8 l-467 -1 16 -25 c22 -33 89 -72 165 -96 58 -18
107 -19 925 -19 574 0 863 -3 859 -10 -4 -7 -251 -10 -707 -10 l-701 0 7 -40
c16 -100 109 -235 183 -266 27 -12 241 -14 1208 -14 l1175 0 0 45 0 45 -570 0
-570 0 0 245 0 245 570 0 570 0 0 122 0 121 -1604 -4 -1604 -4 -26 24 -26 24
0 -81z m868 -120 l3 -72 -303 2 -303 3 -3 59 c-2 32 -1 65 2 73 5 13 51 14
304 11 l297 -3 3 -73z m860 -409 c-130 -2 -346 -2 -480 0 -134 1 -27 2 237 2
264 0 373 -1 243 -2z m5 -60 c-134 -2 -352 -2 -485 0 -134 1 -25 2 242 2 267
0 376 -1 243 -2z m227 -54 c0 -5 -181 -9 -470 -9 -301 0 -470 4 -470 10 0 6
169 10 470 9 289 0 470 -4 470 -10z"/>
<path d="M471 1279 c0 -255 4 -473 8 -484 6 -16 11 -8 24 40 14 53 52 166 107
320 10 28 28 71 39 97 l22 48 -34 77 c-40 92 -87 225 -87 247 0 12 -49 86 -76
115 -2 2 -4 -205 -3 -460z"/>
<path d="M584 1594 c17 -66 81 -225 123 -304 50 -94 115 -200 123 -199 3 0 18
27 33 59 l28 60 -80 154 c-45 84 -81 159 -81 165 0 6 10 11 23 12 12 0 -3 7
-33 15 -30 8 -74 26 -99 41 l-44 25 7 -28z"/>
<path d="M890 1530 c0 -23 56 -154 116 -274 l65 -129 -41 7 c-35 5 -82 22
-122 44 -4 2 -17 -16 -29 -40 -19 -35 -24 -64 -27 -151 -4 -100 -2 -111 22
-162 42 -84 144 -153 261 -174 40 -8 448 -11 1302 -11 l1243 0 0 210 0 210
-1221 0 c-1202 0 -1221 0 -1267 20 -34 15 -56 34 -79 68 -41 60 -134 249 -163
330 -17 46 -28 62 -41 62 -11 0 -19 -4 -19 -10z m1029 -534 c59 -54 64 -169 9
-231 l-30 -35 -318 0 -318 0 -30 34 c-54 62 -51 169 8 228 l29 29 315 -3 c290
-3 315 -4 335 -22z"/>
<path d="M1277 979 c-51 -30 -64 -138 -21 -188 l26 -31 296 0 c164 0 302 4
308 8 60 42 57 178 -5 212 -26 14 -580 13 -604 -1z"/>
<path d="M630 1173 c-61 -157 -85 -227 -114 -333 -25 -90 -26 -97 -12 -138 9
-24 25 -57 37 -73 12 -17 20 -31 18 -32 -2 -1 -30 -15 -61 -31 -38 -19 -58
-35 -58 -46 0 -22 52 -67 88 -78 15 -4 320 -7 677 -6 358 1 1061 2 1563 3
l912 1 0 90 0 90 -1303 2 -1302 3 -55 26 c-72 34 -143 98 -169 152 -17 35 -21
62 -21 141 l0 98 -48 72 c-26 39 -58 92 -72 119 -14 26 -28 47 -32 47 -3 0
-25 -48 -48 -107z"/>
</g>
</svg>
