<svg xmlns="http://www.w3.org/2000/svg" class="_Tw51m" width="25" height="22"><path class="_qNJk-" d="M7.618 6H16.382L18.382 10H5.618L7.618 6ZM5.5 16H5V15H7C7.552 15 8 14.552 8 14C8 13.448 7.552 13 7 13H5V12H19V13H17C16.448 13 16 13.448 16 14C16 14.552 16.448 15 17 15H19V16H18.5H5.5ZM21 11C21 10.986 20.993 10.975 20.992 10.961C20.988 10.857 20.967 10.755 20.931 10.656C20.922 10.634 20.917 10.612 20.908 10.59C20.902 10.578 20.9 10.565 20.894 10.553L17.894 4.553C17.725 4.214 17.379 4 17 4H7C6.621 4 6.275 4.214 6.105 4.553L3.105 10.553C3.099 10.565 3.097 10.578 3.092 10.59C3.082 10.612 3.077 10.634 3.069 10.656C3.033 10.755 3.012 10.857 3.008 10.961C3.007 10.975 3 10.986 3 11V17C3 17.064 3.025 17.12 3.036 17.18C3.014 17.284 3 17.39 3 17.5V18.5C3 19.325 3.675 20 4.5 20H5.5C6.325 20 7 19.325 7 18.5V18H17V18.5C17 19.325 17.675 20 18.5 20H19.5C20.325 20 21 19.325 21 18.5V17.5C21 17.39 20.986 17.284 20.964 17.18C20.975 17.12 21 17.064 21 17V11Z"/></svg>