<svg xmlns="http://www.w3.org/2000/svg" class="_Tw51m" width="25" height="22"><path class="_qNJk-" d="M10.4148 12C10.6801 12 10.9344 11.8946 11.1219 11.7071C11.3095 11.5196 11.4148 11.2652 11.4148 11C11.4148 10.7348 11.3095 10.4804 11.1219 10.2929C10.9344 10.1054 10.6801 10 10.4148 10H5.03484L7.03484 6H15.7948L16.5248 7.45001C16.655 7.66636 16.8622 7.82543 17.1048 7.89532C17.3475 7.96522 17.6076 7.94077 17.8329 7.82684C18.0583 7.71291 18.2321 7.51796 18.3197 7.28113C18.4072 7.04429 18.4019 6.78308 18.3049 6.54999L17.3049 4.54999C17.2218 4.38507 17.0946 4.24643 16.9375 4.14935C16.7804 4.05227 16.5995 4.00056 16.4148 4H6.41484C6.23017 4.00056 6.04929 4.05227 5.8922 4.14935C5.7351 4.24643 5.60793 4.38507 5.52483 4.54999L2.52483 10.55C2.49582 10.6201 2.52483 10.55 2.49582 10.6201C2.45671 10.7153 2.46534 10.8171 2.46483 10.92V16.92C2.46483 17.1 2.46483 16.92 2.46483 17.1C2.46487 17.42 2.46482 17.1 2.46483 17.42V18.42C2.46483 18.8178 2.62286 19.1993 2.90416 19.4807C3.18546 19.762 3.567 19.92 3.96483 19.92H4.96483C5.34047 19.908 5.69796 19.7554 5.96648 19.4924C6.23499 19.2295 6.39499 18.8753 6.41484 18.5V18H10.4148C10.6801 18 10.9344 17.8946 11.1219 17.7071C11.3095 17.5196 11.4148 17.2652 11.4148 17C11.4148 16.7348 11.3095 16.4804 11.1219 16.2929C10.9344 16.1054 10.6801 16 10.4148 16H4.41484V15H6.41484C6.68006 15 6.9344 14.8946 7.12193 14.7071C7.30947 14.5196 7.41484 14.2652 7.41484 14C7.41484 13.7348 7.30947 13.4804 7.12193 13.2929C6.9344 13.1054 6.68006 13 6.41484 13H4.41484V12H10.4148Z"/><path class="_qNJk-" d="M21.5452 13.17C21.4931 13.0091 21.3937 12.8676 21.2599 12.7641C21.126 12.6606 20.9641 12.6 20.7952 12.5901L18.6152 12.43L17.7852 10.43C17.7237 10.2714 17.615 10.1354 17.4737 10.0406C17.3324 9.94582 17.1653 9.89677 16.9952 9.90006V9.90006C16.8257 9.89955 16.6599 9.94972 16.5191 10.0442C16.3783 10.1386 16.269 10.273 16.2052 10.43L15.3752 12.43L13.1852 12.5901C13.0177 12.6006 12.8572 12.6616 12.7251 12.7652C12.593 12.8687 12.4955 13.0099 12.4452 13.17C12.3899 13.3316 12.3851 13.5063 12.4316 13.6706C12.478 13.835 12.5734 13.9813 12.7052 14.0901L14.4152 15.5L13.9052 17.5801C13.8642 17.7498 13.8746 17.9279 13.9352 18.0918C13.9957 18.2556 14.1036 18.3977 14.2452 18.5C14.3939 18.6062 14.5725 18.6622 14.7552 18.66C14.9179 18.6621 15.0777 18.617 15.2152 18.5301L17.0352 17.4001L18.8152 18.5C18.9611 18.6043 19.1359 18.6603 19.3152 18.6603C19.4945 18.6603 19.6693 18.6043 19.8152 18.5C19.9568 18.3977 20.0647 18.2556 20.1253 18.0918C20.1858 17.9279 20.1962 17.7498 20.1552 17.5801L19.6152 15.5L21.2852 14.0901C21.4147 13.9796 21.5086 13.8332 21.5548 13.6695C21.6011 13.5057 21.5978 13.3319 21.5452 13.17V13.17ZM18.2852 14.66C18.1777 14.749 18.0979 14.867 18.0554 14.9999C18.0129 15.1328 18.0093 15.2751 18.0452 15.41L18.2952 16.41L17.3852 15.8401C17.2665 15.7666 17.1298 15.7276 16.9902 15.7276C16.8506 15.7276 16.7138 15.7666 16.5952 15.8401L15.6852 16.41L15.9452 15.41C15.9787 15.2741 15.973 15.1316 15.9287 14.9989C15.8845 14.8661 15.8035 14.7486 15.6952 14.66L14.8852 13.97L15.9452 13.89C16.0859 13.8818 16.2211 13.8331 16.3347 13.7497C16.4483 13.6663 16.5352 13.5518 16.5852 13.42L16.9952 12.42L17.3952 13.42C17.4472 13.5504 17.5348 13.6636 17.6479 13.7467C17.7611 13.8298 17.8952 13.8794 18.0352 13.89L19.1052 13.97L18.2852 14.66Z"/></svg>