<svg xmlns="http://www.w3.org/2000/svg" class="_Tw51m" width="25" height="22"><path class="_qNJk-" d="M16.87 2C17.0188 1.99867 17.1663 2.027 17.304 2.08331C17.4417 2.13963 17.5668 2.22281 17.672 2.328C17.7772 2.4332 17.8604 2.55828 17.9167 2.69598C17.973 2.83368 18.0013 2.98124 18 3.13V12.87C18.0013 13.0188 17.973 13.1663 17.9167 13.304C17.8604 13.4417 17.7772 13.5668 17.672 13.672C17.5668 13.7772 17.4417 13.8604 17.304 13.9167C17.1663 13.973 17.0188 14.0013 16.87 14H3.13C2.83031 14 2.54291 13.8809 2.33099 13.669C2.11908 13.4571 2 13.1697 2 12.87V3.13C2 2.83031 2.11908 2.54291 2.33099 2.33099C2.54291 2.11908 2.83031 2 3.13 2H16.87ZM16.87 0H3.13C2.29988 0 1.50374 0.329759 0.916748 0.916748C0.329759 1.50374 0 2.29988 0 3.13V12.87C0 13.7001 0.329759 14.4963 0.916748 15.0833C1.50374 15.6702 2.29988 16 3.13 16H16.87C17.7001 16 18.4963 15.6702 19.0833 15.0833C19.6702 14.4963 20 13.7001 20 12.87V3.13C20 2.29988 19.6702 1.50374 19.0833 0.916748C18.4963 0.329759 17.7001 0 16.87 0V0Z"/><path class="_qNJk-" d="M16 12H12C11.7348 12 11.4804 11.8946 11.2929 11.7071C11.1054 11.5196 11 11.2652 11 11C11 10.7348 11.1054 10.4804 11.2929 10.2929C11.4804 10.1054 11.7348 10 12 10H16C16.2652 10 16.5196 10.1054 16.7071 10.2929C16.8946 10.4804 17 10.7348 17 11C17 11.2652 16.8946 11.5196 16.7071 11.7071C16.5196 11.8946 16.2652 12 16 12Z"/><path class="_qNJk-" d="M16 9H12C11.7348 9 11.4804 8.89463 11.2929 8.70709C11.1054 8.51956 11 8.26522 11 8C11 7.73478 11.1054 7.48044 11.2929 7.29291C11.4804 7.10537 11.7348 7 12 7H16C16.2652 7 16.5196 7.10537 16.7071 7.29291C16.8946 7.48044 17 7.73478 17 8C17 8.26522 16.8946 8.51956 16.7071 8.70709C16.5196 8.89463 16.2652 9 16 9Z"/><path class="_qNJk-" d="M4.03023 5.02995C4.60461 5.02995 5.07023 4.56433 5.07023 3.98995C5.07023 3.41557 4.60461 2.94995 4.03023 2.94995C3.45586 2.94995 2.99023 3.41557 2.99023 3.98995C2.99023 4.56433 3.45586 5.02995 4.03023 5.02995Z"/><path class="_qNJk-" d="M7.04 5.02995C7.61438 5.02995 8.08 4.56433 8.08 3.98995C8.08 3.41557 7.61438 2.94995 7.04 2.94995C6.46562 2.94995 6 3.41557 6 3.98995C6 4.56433 6.46562 5.02995 7.04 5.02995Z"/><path class="_qNJk-" d="M10.04 5.02995C10.6144 5.02995 11.08 4.56433 11.08 3.98995C11.08 3.41557 10.6144 2.94995 10.04 2.94995C9.46562 2.94995 9 3.41557 9 3.98995C9 4.56433 9.46562 5.02995 10.04 5.02995Z"/><path class="_qNJk-" d="M8.2198 7.05005H3.7698C3.37216 7.05005 3.0498 7.3724 3.0498 7.77005V11.31C3.0498 11.7077 3.37216 12.03 3.7698 12.03H8.2198C8.61745 12.03 8.9398 11.7077 8.9398 11.31V7.77005C8.9398 7.3724 8.61745 7.05005 8.2198 7.05005Z"/></svg>