<svg xmlns="http://www.w3.org/2000/svg" class="_Tw51m" width="25" height="22"><path class="_qNJk-" d="M15.2895 18.28C15.1095 18.28 14.9195 18.23 14.7595 18.13L9.99953 15.18L5.23953 18.13C4.89953 18.34 4.44953 18.33 4.12953 18.09C3.79953 17.85 3.64953 17.44 3.74953 17.04L5.08953 11.6L0.799531 7.98C0.489531 7.72 0.359531 7.3 0.489531 6.91C0.619531 6.52 0.959531 6.25 1.36953 6.22L6.95953 5.81L9.07953 0.62C9.22953 0.25 9.58953 0 9.99953 0C10.4095 0 10.7695 0.25 10.9295 0.62L13.0495 5.81L18.6395 6.22C19.0495 6.25 19.3895 6.52 19.5195 6.91C19.6495 7.3 19.5195 7.72 19.2095 7.98L14.9295 11.6L16.2695 17.04C16.3695 17.43 16.2195 17.85 15.8895 18.09C15.6995 18.22 15.4995 18.28 15.2895 18.28ZM3.95953 8.04L6.83953 10.48C7.12953 10.73 7.25953 11.11 7.16953 11.48L6.26953 15.14L9.47953 13.15C9.79953 12.95 10.2095 12.95 10.5295 13.15L13.7395 15.14L12.8395 11.48C12.7495 11.11 12.8795 10.72 13.1695 10.48L16.0495 8.04L12.2895 7.76C11.9095 7.73 11.5795 7.49 11.4395 7.14L9.99953 3.65L8.56953 7.14C8.42953 7.49 8.09953 7.73 7.71953 7.76L3.95953 8.04Z"/></svg>