<svg xmlns="http://www.w3.org/2000/svg" class="_Tw51m" width="25" height="22"><path class="_qNJk-" d="M17.451 3.80858C19.0985 5.00269 20.3192 6.69407 20.9336 8.63385L21.3627 7.85139C21.4162 7.74915 21.4895 7.65856 21.5783 7.5849C21.6671 7.51124 21.7697 7.45597 21.8801 7.4223C22.0435 7.36899 22.2188 7.36447 22.3847 7.4093C22.5506 7.45413 22.6998 7.54636 22.814 7.6747C22.8891 7.76063 22.9488 7.85882 22.9907 7.96497C23.0031 8.07821 23.0031 8.19247 22.9907 8.30572C22.9763 8.42011 22.9421 8.53113 22.8897 8.63385L21.5267 11.3977C21.4496 11.5378 21.3417 11.6586 21.2112 11.7511C21.0768 11.8293 20.925 11.8726 20.7695 11.8773C20.6334 11.8855 20.4977 11.8549 20.3783 11.7889L17.5639 10.3502C17.3712 10.2381 17.2272 10.0581 17.1601 9.8454C17.1021 9.63285 17.1255 9.40628 17.2259 9.21016C17.3263 9.01403 17.4964 8.8625 17.7028 8.78529C17.9094 8.70309 18.1397 8.70309 18.3464 8.78529L19.2803 9.26487C18.8387 7.6529 17.8812 6.22997 16.5543 5.21373C15.2067 4.18211 13.5567 3.6231 11.8596 3.6231C10.1624 3.6231 8.51244 4.18211 7.16478 5.21373C5.83511 6.24947 4.8855 7.69606 4.46403 9.32797C4.4259 9.44013 4.36463 9.54302 4.28419 9.62999C4.20375 9.71695 4.10593 9.78604 3.99708 9.83278C3.79285 9.94531 3.55241 9.97253 3.3282 9.9085C3.11128 9.83522 2.93065 9.68168 2.82338 9.47941C2.71508 9.27346 2.6924 9.0331 2.76028 8.81053C3.3368 6.85918 4.52441 5.14438 6.14839 3.91846C7.77236 2.69254 9.74694 2.02023 11.7816 2.00045C13.8162 1.98067 15.8035 2.61446 17.451 3.80858ZM6.44542 20.0805C8.0831 21.3019 10.0572 21.9893 12.0993 22.0493H12.1246C14.1974 21.9965 16.2014 21.2946 17.8542 20.0426C19.4899 18.8358 20.7042 17.1447 21.3248 15.209C21.3494 15.0968 21.3494 14.9805 21.3248 14.8683C21.3104 14.7539 21.2762 14.6429 21.2239 14.5402C21.1738 14.44 21.1001 14.3533 21.0093 14.2878C20.9234 14.2089 20.8194 14.1526 20.7064 14.1237C20.5942 14.0991 20.4779 14.0991 20.3657 14.1237C20.2513 14.1381 20.1403 14.1723 20.0375 14.2247C19.9357 14.2777 19.8456 14.3507 19.7725 14.4392C19.7013 14.5256 19.6458 14.6239 19.6084 14.7295C19.2898 15.9668 18.6677 17.1052 17.7984 18.0417C16.9291 18.9781 15.8401 19.6831 14.6298 20.0927C13.4196 20.5024 12.1263 20.6039 10.8669 20.388C9.60757 20.1722 8.4219 19.6457 7.41719 18.8563C6.11627 17.8525 5.17718 16.4527 4.74168 14.8683L5.67558 15.3226C5.88992 15.4103 6.13012 15.4103 6.34446 15.3226C6.56226 15.2441 6.74249 15.0864 6.84927 14.8809C6.93694 14.6666 6.93694 14.4264 6.84927 14.212C6.7707 13.9942 6.613 13.814 6.40756 13.7072L3.56798 12.3568C3.46125 12.3072 3.34495 12.2815 3.22723 12.2815C3.10951 12.2815 2.99322 12.3072 2.88648 12.3568C2.77208 12.3953 2.66832 12.4602 2.5836 12.5462C2.49535 12.6265 2.42634 12.7257 2.38167 12.8364L1.05653 16.0041C0.981155 16.2077 0.981155 16.4316 1.05653 16.6351C1.14558 16.8382 1.30777 17.0004 1.51087 17.0895C1.62003 17.1298 1.73527 17.1511 1.85162 17.1526C2.02008 17.1558 2.18612 17.1121 2.33119 17.0264C2.47579 16.9356 2.59004 16.8038 2.65932 16.6478L3.11365 15.575C3.76366 17.3683 4.92129 18.9337 6.44542 20.0805ZM11.1781 6.74069V7.30861C10.7128 7.43835 10.2847 7.67618 9.92873 8.00273C9.51887 8.41715 9.24203 8.94447 9.13365 9.51717C9.0228 10.0765 9.07988 10.6561 9.29771 11.1831C9.5258 11.7181 9.9081 12.1732 10.3959 12.4901C10.8836 12.807 11.4547 12.9715 12.0363 12.9625C12.2428 12.9849 12.4393 13.0635 12.6042 13.1897C12.7878 13.3066 12.9293 13.479 13.0081 13.6819C13.0982 13.8795 13.1203 14.1014 13.0712 14.3129C13.0248 14.5055 12.924 14.6807 12.7809 14.8177C12.621 14.9661 12.4253 15.0704 12.213 15.1206C12.0007 15.1536 11.7835 15.1319 11.582 15.0575C11.382 14.9738 11.2109 14.8334 11.0898 14.6537C10.9656 14.4762 10.8994 14.2645 10.9005 14.0479C10.9154 13.9239 10.9038 13.7981 10.8666 13.6789C10.8293 13.5597 10.7672 13.4497 10.6843 13.3562C10.6014 13.2628 10.4996 13.188 10.3857 13.1368C10.2718 13.0855 10.1483 13.059 10.0234 13.059C9.89847 13.059 9.77498 13.0855 9.66106 13.1368C9.54714 13.188 9.44538 13.2628 9.36249 13.3562C9.2796 13.4497 9.21747 13.5597 9.1802 13.6789C9.14293 13.7981 9.13136 13.9239 9.14627 14.0479C9.14113 14.6674 9.33435 15.2723 9.69767 15.7742C10.061 16.276 10.5754 16.6484 11.1655 16.837V17.3923C11.1506 17.5163 11.1622 17.6421 11.1995 17.7613C11.2367 17.8805 11.2989 17.9904 11.3817 18.0839C11.4646 18.1773 11.5664 18.2521 11.6803 18.3034C11.7942 18.3546 11.9177 18.3811 12.0426 18.3811C12.1675 18.3811 12.291 18.3546 12.405 18.3034C12.5189 18.2521 12.6206 18.1773 12.7035 18.0839C12.7864 17.9904 12.8485 17.8805 12.8858 17.7613C12.9231 17.6421 12.9347 17.5163 12.9198 17.3923V16.7865C13.3571 16.6457 13.7549 16.4035 14.0808 16.0797C14.3487 15.8135 14.5613 15.4969 14.7063 15.1482C14.8514 14.7995 14.9261 14.4256 14.9261 14.0479C14.9261 13.6702 14.8514 13.2962 14.7063 12.9475C14.5613 12.5988 14.3487 12.2822 14.0808 12.016C13.5326 11.4845 12.7999 11.186 12.0363 11.1831C11.7941 11.1733 11.5607 11.0897 11.3674 10.9433C11.1877 10.8221 11.0473 10.651 10.9636 10.4511C10.9066 10.2446 10.9066 10.0265 10.9636 9.82006C11.0158 9.61225 11.12 9.42115 11.2665 9.26476C11.407 9.14361 11.5766 9.06099 11.7587 9.02498C11.9703 8.97677 12.1918 8.99893 12.3897 9.08808C12.5892 9.1664 12.7606 9.30267 12.8819 9.47931C12.9956 9.66105 13.0567 9.87072 13.0586 10.0851C13.0595 10.2006 13.0835 10.3147 13.129 10.4209C13.1745 10.5271 13.2406 10.6231 13.3236 10.7035C13.4059 10.7874 13.504 10.8541 13.6124 10.8997C13.7207 10.9452 13.8371 10.9686 13.9546 10.9686C14.0722 10.9686 14.1885 10.9452 14.2969 10.8997C14.4052 10.8541 14.5034 10.7874 14.5856 10.7035C14.6686 10.6231 14.7348 10.5271 14.7803 10.4209C14.8258 10.3147 14.8497 10.2006 14.8507 10.0851C14.8463 9.51427 14.6753 8.95716 14.3585 8.4823C14.053 8.01091 13.6135 7.6417 13.0964 7.42219L12.9198 7.34647V6.69021C12.9202 6.57751 12.8981 6.46587 12.8547 6.36184C12.8114 6.25781 12.7477 6.16349 12.6673 6.08444C12.4988 5.91834 12.2729 5.82345 12.0363 5.81941C11.8007 5.84048 11.5829 5.95389 11.4306 6.13492C11.3502 6.21397 11.2865 6.30829 11.2432 6.41232C11.1998 6.51635 11.1777 6.628 11.1781 6.74069Z"/></svg>