<svg xmlns="http://www.w3.org/2000/svg" class="_Tw51m" width="25" height="22"><path class="_qNJk-" d="M20 15.94C19.45 15.94 19 16.39 19 16.94V18C19 18.55 18.55 19 18 19H6C5.45 19 5 18.55 5 18V6C5 5.45 5.45 5 6 5H18C18.55 5 19 5.45 19 6C19 6.55 19.45 7 20 7C20.55 7 21 6.55 21 6C21 4.35 19.65 3 18 3H6C4.35 3 3 4.35 3 6V18C3 19.65 4.35 21 6 21H18C19.65 21 21 19.65 21 18V16.94C21 16.39 20.55 15.94 20 15.94Z"/><path class="_qNJk-" d="M21.8998 11.4001C21.9998 11.1601 21.9998 10.8801 21.8998 10.6401C21.8498 10.5201 21.7798 10.4101 21.6798 10.3101L18.6598 7.29006C18.2698 6.90006 17.6398 6.90006 17.2498 7.29006C16.8598 7.68006 16.8598 8.31006 17.2498 8.70006L18.5598 10.0101H17.2198C12.2498 9.97006 10.7098 14.0001 10.2598 15.7401C10.1198 16.2701 10.4498 16.8201 10.9798 16.9601C11.0698 16.9901 11.1498 17.0001 11.2298 17.0001C11.6798 17.0001 12.0798 16.7001 12.1998 16.2501C12.6998 14.3001 13.9598 12.0201 17.2098 12.0201H18.5598L17.2498 13.3301C16.8598 13.7201 16.8598 14.3501 17.2498 14.7401C17.4498 14.9401 17.6998 15.0301 17.9598 15.0301C18.2198 15.0301 18.4698 14.9301 18.6698 14.7401L21.6898 11.7201C21.7698 11.6301 21.8498 11.5201 21.8998 11.4001Z"/></svg>