<svg xmlns="http://www.w3.org/2000/svg" class="_Tw51m" width="25" height="22"><path class="_qNJk-" d="M12 12.5C12 13.891 11.178 15.085 10 15.649V12.5C10 11.675 9.325 11 8.5 11H7.5C6.675 11 6 11.675 6 12.5V15.649C4.822 15.085 4 13.891 4 12.5V9.5C4 8.473 4.455 7.521 5.216 6.862C5.937 7.564 6.917 8 8 8C9.083 8 10.063 7.564 10.784 6.863C11.545 7.521 12 8.473 12 9.5V12.5ZM8 2C9.103 2 10 2.897 10 4C10 5.103 9.103 6 8 6C6.897 6 6 5.103 6 4C6 2.897 6.897 2 8 2ZM15 3H11.857C11.411 1.28 9.858 0 8 0C6.142 0 4.589 1.28 4.143 3H1C0.447 3 0 3.448 0 4C0 4.552 0.447 5 1 5H4.143C4.153 5.043 4.169 5.085 4.182 5.128C2.821 6.161 2 7.763 2 9.5V12.5C2 15.012 3.695 17.131 6 17.787V18.5C6 19.325 6.675 20 7.5 20H8.5C9.325 20 10 19.325 10 18.5V17.787C12.305 17.131 14 15.012 14 12.5V9.5C14 7.763 13.179 6.161 11.818 5.128C11.831 5.085 11.847 5.043 11.857 5H15C15.553 5 16 4.552 16 4C16 3.448 15.553 3 15 3Z"/></svg>