<svg xmlns="http://www.w3.org/2000/svg" class="_Tw51m" width="25" height="22"><path class="_qNJk-" d="M7.21997 8.86005C7.72205 9.343 8.3416 9.68644 9.01721 9.85638C9.69282 10.0263 10.4011 10.0169 11.0719 9.82898C11.7427 9.64107 12.3529 9.28121 12.8419 8.78503C13.3309 8.28885 13.6818 7.67356 13.86 7.00006H17C17.2652 7.00006 17.5196 6.89469 17.7071 6.70715C17.8946 6.51962 18 6.26528 18 6.00006C18 5.73484 17.8946 5.48051 17.7071 5.29297C17.5196 5.10543 17.2652 5.00006 17 5.00006H13.86C13.6297 4.15269 13.127 3.40465 12.4294 2.87134C11.7318 2.33802 10.8781 2.04907 10 2.04907C9.1219 2.04907 8.26821 2.33802 7.57062 2.87134C6.87302 3.40465 6.3703 4.15269 6.14001 5.00006H3C2.73478 5.00006 2.48044 5.10543 2.29291 5.29297C2.10537 5.48051 2 5.73484 2 6.00006C2 6.26528 2.10537 6.51962 2.29291 6.70715C2.48044 6.89469 2.73478 7.00006 3 7.00006H6.14001V7.13007C5.4703 7.64396 4.92857 8.30589 4.55731 9.06403C4.18605 9.82216 3.99532 10.6559 4 11.5001V14.5001C4.0036 15.6961 4.39561 16.8587 5.117 17.8127C5.8384 18.7668 6.85015 19.4607 8 19.79V20.5001C8 20.8979 8.15803 21.2794 8.43933 21.5607C8.72064 21.842 9.10218 22.0001 9.5 22.0001H10.5C10.8978 22.0001 11.2794 21.842 11.5607 21.5607C11.842 21.2794 12 20.8979 12 20.5001V14.5001C12 14.1022 11.842 13.7207 11.5607 13.4394C11.2794 13.1581 10.8978 13.0001 10.5 13.0001H9.5C9.10218 13.0001 8.72064 13.1581 8.43933 13.4394C8.15803 13.7207 8 14.1022 8 14.5001V17.6501C7.40346 17.3671 6.89912 16.9212 6.54523 16.3638C6.19133 15.8064 6.00232 15.1603 6 14.5001V11.5001C5.99957 10.9978 6.10847 10.5015 6.31915 10.0457C6.52983 9.58976 6.8372 9.18518 7.21997 8.86005V8.86005ZM10 4.00006C10.3956 4.00006 10.7822 4.11733 11.1111 4.3371C11.44 4.55686 11.6964 4.86923 11.8478 5.23468C11.9992 5.60013 12.0387 6.0023 11.9615 6.39026C11.8844 6.77822 11.6939 7.13454 11.4142 7.41425C11.1345 7.69395 10.7782 7.88444 10.3902 7.96161C10.0022 8.03878 9.60007 7.99921 9.23462 7.84784C8.86917 7.69646 8.5568 7.4401 8.33704 7.11121C8.11727 6.78231 8 6.39562 8 6.00006C8 5.46963 8.21074 4.96095 8.58582 4.58588C8.96089 4.2108 9.46957 4.00006 10 4.00006Z"/><path class="_qNJk-" d="M21 12H18.5V9.5C18.5 9.23478 18.3946 8.98044 18.2071 8.79291C18.0196 8.60537 17.7652 8.5 17.5 8.5C17.2348 8.5 16.9804 8.60537 16.7929 8.79291C16.6054 8.98044 16.5 9.23478 16.5 9.5V12H14C13.7348 12 13.4804 12.1054 13.2929 12.2929C13.1054 12.4804 13 12.7348 13 13C13 13.2652 13.1054 13.5196 13.2929 13.7071C13.4804 13.8946 13.7348 14 14 14H16.5V16.5C16.5 16.7652 16.6054 17.0196 16.7929 17.2071C16.9804 17.3946 17.2348 17.5 17.5 17.5C17.7652 17.5 18.0196 17.3946 18.2071 17.2071C18.3946 17.0196 18.5 16.7652 18.5 16.5V14H21C21.2652 14 21.5196 13.8946 21.7071 13.7071C21.8946 13.5196 22 13.2652 22 13C22 12.7348 21.8946 12.4804 21.7071 12.2929C21.5196 12.1054 21.2652 12 21 12Z"/></svg>