<svg xmlns="http://www.w3.org/2000/svg" class="_Tw51m" width="25" height="22"><path class="_qNJk-" d="M20.9233 3.61824C20.8213 3.37324 20.6273 3.17924 20.3822 3.07724C20.2603 3.02624 20.1302 3.00024 20.0002 3.00024H17.0002C16.4473 3.00024 16.0002 3.44824 16.0002 4.00024C16.0002 4.55224 16.4473 5.00024 17.0002 5.00024H17.5863L12.5002 10.0862L9.20725 6.79324C8.81725 6.40224 8.18425 6.40224 7.79325 6.79324L3.29325 11.2932C2.90225 11.6832 2.90225 12.3162 3.29325 12.7072C3.48825 12.9022 3.74425 13.0002 4.00025 13.0002C4.25625 13.0002 4.51225 12.9022 4.70725 12.7072L8.50025 8.91424L11.7933 12.2072C12.1842 12.5972 12.8172 12.5972 13.2072 12.2072L19.0002 6.41424V7.00024C19.0002 7.55224 19.4473 8.00024 20.0002 8.00024C20.5532 8.00024 21.0002 7.55224 21.0002 7.00024V4.00024C21.0002 3.87024 20.9743 3.74024 20.9233 3.61824ZM4.00035 15C3.44735 15 3.00035 15.448 3.00035 16V20C3.00035 20.552 3.44735 21 4.00035 21C4.55335 21 5.00035 20.552 5.00035 20V16C5.00035 15.448 4.55335 15 4.00035 15ZM8.00035 12C7.44735 12 7.00035 12.448 7.00035 13V20C7.00035 20.552 7.44735 21 8.00035 21C8.55335 21 9.00035 20.552 9.00035 20V13C9.00035 12.448 8.55335 12 8.00035 12ZM16.0003 12C15.4474 12 15.0003 12.448 15.0003 13V20C15.0003 20.552 15.4474 21 16.0003 21C16.5534 21 17.0003 20.552 17.0003 20V13C17.0003 12.448 16.5534 12 16.0003 12ZM20.0004 10C19.4474 10 19.0004 10.448 19.0004 11V20C19.0004 20.552 19.4474 21 20.0004 21C20.5534 21 21.0004 20.552 21.0004 20V11C21.0004 10.448 20.5534 10 20.0004 10ZM12.0003 15C11.4474 15 11.0003 15.448 11.0003 16V20C11.0003 20.552 11.4474 21 12.0003 21C12.5534 21 13.0003 20.552 13.0003 20V16C13.0003 15.448 12.5534 15 12.0003 15Z"/></svg>