<svg xmlns="http://www.w3.org/2000/svg" class="_eayYE"><path class="_qNJk-" d="M5.06494 16.284C6.29494 14.849 8.09594 14 9.99994 14C11.9119 14 13.7089 14.845 14.9379 16.282C13.5769 17.354 11.8639 18 9.99994 18C8.13794 18 6.42594 17.355 5.06494 16.284ZM7 9C7 7.346 8.346 6 10 6C11.654 6 13 7.346 13 9C13 10.655 11.654 12 10 12C8.346 12 7 10.655 7 9ZM10 2C14.411 2 18 5.589 18 10C18 11.825 17.379 13.503 16.348 14.85C15.51 13.909 14.477 13.185 13.336 12.697C14.35 11.782 15 10.471 15 9C15 6.243 12.757 4 10 4C7.243 4 5 6.243 5 9C5 10.472 5.651 11.784 6.666 12.699C5.525 13.187 4.492 13.914 3.655 14.853C2.621 13.505 2 11.826 2 10C2 5.589 5.589 2 10 2ZM10 0C4.477 0 0 4.477 0 10C0 15.523 4.477 20 10 20C15.523 20 20 15.523 20 10C20 4.477 15.523 0 10 0Z"/></svg>